#Formula EM_EZ_FD
# NODES: num_nodes  dim  num_attributes  num_markers
# idx  x  y  z  marker
28 2 1 1
1 -4.035500000000e-03 -8.255000000000e-04 0.000000000000e+00 11
2 4.035500000000e-03 -8.255000000000e-04 0.000000000000e+00 12
3 4.035500000000e-03 8.255000000000e-04 0.000000000000e+00 12
4 -4.035500000000e-03 8.255000000000e-04 0.000000000000e+00 11
5 -3.020600000000e-03 -3.810000000000e-05 0.000000000000e+00 1
6 -2.988800000000e-03 -3.810000000000e-05 0.000000000000e+00 1
7 -2.988800000000e-03 3.810000000000e-05 0.000000000000e+00 1
8 -3.020600000000e-03 3.810000000000e-05 0.000000000000e+00 1
9 -2.101800000000e-03 -3.810000000000e-05 0.000000000000e+00 1
10 -2.101800000000e-03 3.810000000000e-05 0.000000000000e+00 1
11 -1.765300000000e-03 -3.810000000000e-05 0.000000000000e+00 1
12 -1.765300000000e-03 3.810000000000e-05 0.000000000000e+00 1
13 -8.763000000000e-04 -3.810000000000e-05 0.000000000000e+00 1
14 -8.763000000000e-04 3.810000000000e-05 0.000000000000e+00 1
15 -4.445000000000e-04 -3.810000000000e-05 0.000000000000e+00 1
16 -4.445000000000e-04 3.810000000000e-05 0.000000000000e+00 1
17 4.445000000000e-04 -3.810000000000e-05 0.000000000000e+00 1
18 4.445000000000e-04 3.810000000000e-05 0.000000000000e+00 1
19 8.763000000000e-04 -3.810000000000e-05 0.000000000000e+00 1
20 8.763000000000e-04 3.810000000000e-05 0.000000000000e+00 1
21 1.765300000000e-03 -3.810000000000e-05 0.000000000000e+00 1
22 1.765300000000e-03 3.810000000000e-05 0.000000000000e+00 1
23 2.101800000000e-03 -3.810000000000e-05 0.000000000000e+00 1
24 2.101800000000e-03 3.810000000000e-05 0.000000000000e+00 1
25 2.988800000000e-03 -3.810000000000e-05 0.000000000000e+00 1
26 2.988800000000e-03 3.810000000000e-05 0.000000000000e+00 1
27 3.020600000000e-03 -3.810000000000e-05 0.000000000000e+00 1
28 3.020600000000e-03 3.810000000000e-05 0.000000000000e+00 1

# SEGMENTS: num_segments  num_markers
# idx  v1  v2  marker
28 1
1 2 1 1
2 3 2 12
3 4 3 1
4 1 4 11
5 6 5 1
6 8 7 1
7 5 8 1
8 9 6 2
9 7 10 2
10 11 9 1
11 10 12 1
12 13 11 2
13 12 14 2
14 15 13 1
15 14 16 1
16 17 15 2
17 16 18 2
18 19 17 1
19 18 20 1
20 21 19 2
21 20 22 2
22 23 21 1
23 22 24 1
24 25 23 2
25 24 26 2
26 27 25 1
27 28 27 1
28 26 28 1

# HOLES: num_holes
0

# REGIONS: num_regions
# idx  x  y  label  max_area
2
1 0 0.0005 0 0
2 0 0 1 0

#Regions 2
vacuum 1 1 0 0 vacuum
vacuum2 2.1 1 0 0 diel
#Boundaries 3
Walls 1 PerfectE
Port1 11 WavePort 1
Port2 12 WavePort 1
