#Formula EM_E_QS
# NODES: num_nodes  dim  num_attributes  num_markers
# idx  x  y  z  marker
14 2 1 1
1 -2 2 0 1
2 2 2 0 1
3 2 -2 0 1
4 -2 -2 0 1
5 -.1 -.5 0 2
6 .1 -.5 0 2
7 -.1 -.49 0 1
8 .1 -.49 0 1
9 -.101 -.5 0 1
10 -.101 -.9 0 1
11 .101 -.9 0 1
12 .101 -.5 0 1
13 -.2 -.5 0 1
14 .2 -.5 0 1

# SEGMENTS: num_segments  num_markers
# idx  v1  v2  marker
12 1
1 2 1 1
2 3 2 1
3 4 3 1
4 1 4 1
5 6 5 2
6 8 7 1
7 9 10 1
8 10 11 1
9 11 12 1
10 12 9 3
11 13 9 1
12 12 14 1

# HOLES: num_holes
0

# REGIONS: num_regions
# idx  x  y  label  max_area
2
1 0 0 1 0.005
2 0 -.7 2 0.005
#Regions 2
cap1 1 1 1 0 vacuum
cap2 2 1 1 0 vacuum
#Boundaries 3
GND 1 PerfectE
Elec 2 PerfectE
Gap 3 WavePort 1