#Formula EM_E_TL_EIG
# NODES: num_nodes  dim  num_attributes  num_markers
# idx  x  y  z  marker
8 2 0 0
1 -1 1 0 0
2 -0.33333333333333333 1 0
3 0.33333333333333333 1 0
4 1 1 0 0
5 1 -1 0 0
6 0.33333333333333333 -1 0
7 -0.33333333333333333 -1 0
8 -1 -1 0 0

# SEGMENTS: num_segments  num_markers
# idx  v1  v2  marker
10 1
1 2 1 1
2 3 2 1
3 4 3 1
4 5 4 3
5 6 5 1
6 7 6 1
7 8 7 1
8 1 8 2
9 7 2 12
10 6 3 23

# HOLES: num_holes
0

# REGIONS: num_regions
# idx  x  y  label
3
1 -0.5 0 1
2 0 0 2
3 0.5 0 3
left 1 1 1 0 vacuum
mid 2 1 1 0 vacuum
right 3 1 1 0 vacuum
TopBot 1 PerfectE
Left 2 PerfectE
Right 3 PerfectE
Inner1 23 PerfectE
Inner2 12 PerfectE

#Regions 3
left 1 1 1 0 vacuum
mid 2 1 1 0 vacuum
right 3 1 1 0 vacuum
#Boundaries 5
PEC 1 PerfectE
Left 2 PerfectE
Right 3 PerfectE
Div1 12 PerfectE
Div2 23 PerfectE
