#Formula EM_EZ_FD
# NODES: num_nodes  dim  num_attributes  num_markers
# idx  x  y  z  marker
8 2 1 1
1 -0.1 0.1 0 1
2 0.1 0.1 0 1
3 0.1 -0.1 0 1
4 -0.1 -0.1 0 1
5 -1 1 0 133
6 1 1 0 133
7 1 -1 0 133
8 -1 -1 0 133

# SEGMENTS: num_segments  num_markers
# idx  v1  v2  marker
8 1
1 2 1 1
2 3 2 1
3 4 3 1
4 1 4 1
5 6 5 12
6 7 6 13
7 8 7 12
8 5 8 13

# HOLES: num_holes
1
1 0 0

# REGIONS: num_regions
# idx  x  y  label  max_area
1
1 -0.3 0 1 0.5
#2 0 0 2 0.05
#Regions 1
domain 1 1 1 0 vacuum
#Boundaries 3
Scatterer 1 PerfectE
Side1 12 Radiation
Side2 13 Radiation
