#Formula EM_EZ_FD
#
# 2D cross-section of patch antenna at 77 GHz with microstrip feed
# Based on CapSense format

16 2 1 1
1 -0.002 0 0 1
2  0.002 0 0 1
3 -0.002 0 0 2
4  0.002 0 0 2
5 -0.002 0.000508 0 2
6  0.002 0.000508 0 2
7 -0.0008 0.000508 0 3
8  0.0008 0.000508 0 3
9 -0.002 0.000508 0 4
10  0.002 0.000508 0 4
11 -0.002 0.002 0 4
12  0.002 0.002 0 4
13 -0.0008 0 0 5
14  0.0008 0 0 5
15 0 0 0 0
16 0 0 0 0
28 1
1 1 2 1
2 3 5 2
3 4 6 2
4 3 4 2
5 5 6 2
6 7 8 3
7 9 10 4
8 10 12 4
9 12 11 4
10 11 9 4
11 9 13 4
12 13 14 4
13 14 10 4
14 7 9 4
15 9 11 4
16 11 5 4
17 5 7 4
18 8 10 4
19 10 12 4
20 12 14 4
21 14 8 4
22 13 15 11
23 15 16 11
24 16 14 11
25 14 13 11
0
2
1 0 0 1 0.001
2 0 0.000254 2 0.001
#Regions 2
GROUND 1 1 0 vacuum
SUBSTRATE 2 2 0 RO3003
#Boundaries 4
WALLS 1 PerfectE
FEED_LINE 11 PerfectE
PATCH 3 PerfectE
PORT1 11 WavePort 1